<svg xmlns="http://www.w3.org/2000/svg" width="898.869" height="156.532" viewBox="0 0 898.869 156.532">
  <title>MVFF-logo</title>
  <g>
    <rect x="422.754" width="476.115" height="156.532" fill="#ff0"/>
    <g>
      <path d="M477.3,73.331H497V87.2H477.3v40.082H462.048V30.2h40.359V44.068H477.3Z"/>
      <path d="M508.507,53.5c0-15.534,8.183-24.41,23.16-24.41s23.162,8.876,23.162,24.41v50.483c0,15.533-8.183,24.409-23.162,24.409s-23.16-8.876-23.16-24.409Zm15.256,51.454c0,6.934,3.051,9.569,7.9,9.569s7.906-2.635,7.906-9.569V52.528c0-6.935-3.051-9.57-7.906-9.57s-7.9,2.635-7.9,9.57Z"/>
      <path d="M563.425,53.5c0-15.534,8.183-24.41,23.161-24.41s23.162,8.876,23.162,24.41v50.483c0,15.533-8.183,24.409-23.162,24.409s-23.161-8.876-23.161-24.409Zm15.256,51.454c0,6.934,3.051,9.569,7.9,9.569s7.906-2.635,7.906-9.569V52.528c0-6.935-3.052-9.57-7.906-9.57s-7.9,2.635-7.9,9.57Z"/>
      <path d="M615.153,30.2h47.155V44.068h-15.95v83.214H631.1V44.068H615.153Z"/>
      <path d="M714.589,52.528V56c0,9.985-3.051,16.365-9.847,19.555,8.183,3.19,11.373,10.541,11.373,20.8v7.905c0,14.978-7.9,23.023-23.161,23.023H668.96V30.2h23.023C707.794,30.2,714.589,37.549,714.589,52.528Zm-30.373-8.46V69.725h5.964c5.686,0,9.154-2.5,9.154-10.263V54.053c0-6.934-2.358-9.985-7.767-9.985Zm0,39.526v29.818h8.738c5.132,0,7.906-2.357,7.906-9.569v-8.46c0-9.015-2.913-11.789-9.848-11.789Z"/>
      <path d="M774.639,127.282H759.244l-2.635-17.614H737.886l-2.635,17.614H721.243L736.776,30.2h22.329Zm-34.812-30.79h14.7l-7.35-49.1Z"/>
      <path d="M781.709,30.2h15.256v83.213h25.1v13.87H781.709Z"/>
      <path d="M828.72,30.2h15.257v83.213h25.1v13.87H828.72Z"/>
    </g>
    <rect width="431.952" height="156.532" fill="red"/>
    <path d="M869.109,29.089a7.154,7.154,0,0,1,3.43.9,6.412,6.412,0,0,1,2.607,2.58,7.013,7.013,0,0,1,.014,6.966,6.493,6.493,0,0,1-2.58,2.584,7.016,7.016,0,0,1-6.943,0,6.515,6.515,0,0,1-2.584-2.584,6.981,6.981,0,0,1,.014-6.966,6.43,6.43,0,0,1,2.612-2.58A7.148,7.148,0,0,1,869.109,29.089Zm0,1.156a5.945,5.945,0,0,0-2.862.753,5.4,5.4,0,0,0-2.177,2.154,5.8,5.8,0,0,0-.014,5.806,5.481,5.481,0,0,0,2.159,2.154,5.809,5.809,0,0,0,5.787,0,5.437,5.437,0,0,0,2.154-2.154,5.828,5.828,0,0,0-.013-5.806A5.377,5.377,0,0,0,871.965,31,5.949,5.949,0,0,0,869.109,30.245Zm-3.06,9.679V32.417h2.579a6.3,6.3,0,0,1,1.914.208,1.863,1.863,0,0,1,.943.726,1.927,1.927,0,0,1,.351,1.1,2,2,0,0,1-.587,1.433,2.32,2.32,0,0,1-1.558.684,2.068,2.068,0,0,1,.638.4,8.584,8.584,0,0,1,1.109,1.488l.916,1.47h-1.479l-.666-1.183a6.077,6.077,0,0,0-1.267-1.748,1.56,1.56,0,0,0-.97-.259h-.712v3.19ZM867.26,35.7h1.47a2.374,2.374,0,0,0,1.437-.314,1.078,1.078,0,0,0,.2-1.429,1.119,1.119,0,0,0-.513-.393,3.821,3.821,0,0,0-1.216-.129H867.26Z"/>
    <path d="M354.02,43.948h16v83.5h15.308v-83.5h16V30.032H354.02Zm-28.808,3.34,7.376,49.264H317.836ZM337.18,30.032h-22.4l-15.588,97.416h14.056l2.644-17.672h18.788l2.644,17.672h15.448ZM273.86,43.948h25.188V30.032h-40.5v97.416H273.86V87.228h19.76V73.312H273.86Zm-78.9,83.5H210.68V30.032H197.04V88.344L181.316,30.032h-19.2v97.416h13.776V56.892ZM127.6,47.288l7.376,49.264H120.224Zm11.972-17.256H117.16l-15.588,97.416h14.056l2.644-17.672H137.06l2.644,17.672h15.448Zm-88.092,0H30.184v97.416h13.36V58.56l11.412,68.888H69.428L80,57.588v69.86H94.48V30.032h-21.3L62.748,99.2Z" fill="#fff"/>
    <polygon points="229.346 55.36 221.93 55.36 229.146 102.12 240.102 102.12 247.314 55.36 240.57 55.36 234.958 93.504 229.346 55.36" fill="#fff"/>
  </g>
</svg>
